<mxfile host="app.diagrams.net" modified="2022-03-05T04:46:01.333Z" agent="5.0 (Windows NT 10.0; Win64; x64) AppleWebKit/537.36 (KHTML, like Gecko) Chrome/98.0.4758.102 Safari/537.36" etag="Cmm5odU30EGo6XO1pg42" version="16.6.4" type="github">
  <diagram id="VeE7li5wM5BbzBFu2hIH" name="第 1 页">
    <mxGraphModel dx="1609" dy="513" grid="1" gridSize="10" guides="1" tooltips="1" connect="1" arrows="1" fold="1" page="1" pageScale="1" pageWidth="827" pageHeight="1169" math="0" shadow="0">
      <root>
        <mxCell id="0" />
        <mxCell id="1" parent="0" />
        <mxCell id="iL24kiF9AvWuWapnE7Iy-1" value="" style="rounded=0;whiteSpace=wrap;html=1;dashed=1;fillColor=#F6E9FC;strokeColor=#9673a6;" parent="1" vertex="1">
          <mxGeometry x="-140" y="235" width="300" height="210" as="geometry" />
        </mxCell>
        <mxCell id="iL24kiF9AvWuWapnE7Iy-2" value="" style="rounded=0;whiteSpace=wrap;html=1;dashed=1;" parent="1" vertex="1">
          <mxGeometry x="220" y="240" width="260" height="200" as="geometry" />
        </mxCell>
        <mxCell id="iL24kiF9AvWuWapnE7Iy-3" value="" style="rounded=0;whiteSpace=wrap;html=1;dashed=1;" parent="1" vertex="1">
          <mxGeometry x="540" y="240" width="110" height="200" as="geometry" />
        </mxCell>
        <mxCell id="iL24kiF9AvWuWapnE7Iy-4" value="&lt;h2&gt;数据生产&lt;/h2&gt;" style="text;html=1;strokeColor=none;fillColor=none;align=center;verticalAlign=middle;whiteSpace=wrap;rounded=0;" parent="1" vertex="1">
          <mxGeometry x="-40" y="190" width="80" height="30" as="geometry" />
        </mxCell>
        <mxCell id="iL24kiF9AvWuWapnE7Iy-5" value="&lt;h2&gt;数据处理&lt;/h2&gt;" style="text;html=1;strokeColor=none;fillColor=none;align=center;verticalAlign=middle;whiteSpace=wrap;rounded=0;" parent="1" vertex="1">
          <mxGeometry x="307.5" y="190" width="85" height="30" as="geometry" />
        </mxCell>
        <mxCell id="iL24kiF9AvWuWapnE7Iy-6" value="&lt;h2&gt;数据应用&lt;/h2&gt;" style="text;html=1;strokeColor=none;fillColor=none;align=center;verticalAlign=middle;whiteSpace=wrap;rounded=0;" parent="1" vertex="1">
          <mxGeometry x="565" y="200" width="75" height="20" as="geometry" />
        </mxCell>
        <mxCell id="iL24kiF9AvWuWapnE7Iy-8" value="事前" style="rounded=0;whiteSpace=wrap;html=1;dashed=1;" parent="1" vertex="1">
          <mxGeometry x="245" y="270" width="50" height="25" as="geometry" />
        </mxCell>
        <mxCell id="iL24kiF9AvWuWapnE7Iy-9" value="事中" style="rounded=0;whiteSpace=wrap;html=1;dashed=1;" parent="1" vertex="1">
          <mxGeometry x="325" y="270" width="50" height="25" as="geometry" />
        </mxCell>
        <mxCell id="iL24kiF9AvWuWapnE7Iy-10" value="事后" style="rounded=0;whiteSpace=wrap;html=1;dashed=1;" parent="1" vertex="1">
          <mxGeometry x="405" y="270" width="50" height="25" as="geometry" />
        </mxCell>
        <mxCell id="iL24kiF9AvWuWapnE7Iy-13" value="埋点建设" style="text;html=1;strokeColor=none;fillColor=none;align=center;verticalAlign=middle;whiteSpace=wrap;rounded=0;dashed=1;" parent="1" vertex="1">
          <mxGeometry x="-70" y="445" width="140" height="30" as="geometry" />
        </mxCell>
        <mxCell id="iL24kiF9AvWuWapnE7Iy-14" value="数仓建设" style="text;html=1;strokeColor=none;fillColor=none;align=center;verticalAlign=middle;whiteSpace=wrap;rounded=0;dashed=1;fontStyle=1" parent="1" vertex="1">
          <mxGeometry x="280" y="440" width="140" height="30" as="geometry" />
        </mxCell>
        <mxCell id="TgXje85l5A2x8AtPbwSx-1" style="edgeStyle=orthogonalEdgeStyle;rounded=0;orthogonalLoop=1;jettySize=auto;html=1;exitX=0.5;exitY=1;exitDx=0;exitDy=0;" edge="1" parent="1" source="iL24kiF9AvWuWapnE7Iy-17" target="iL24kiF9AvWuWapnE7Iy-30">
          <mxGeometry relative="1" as="geometry" />
        </mxCell>
        <mxCell id="iL24kiF9AvWuWapnE7Iy-17" value="&lt;h4&gt;定义&lt;/h4&gt;" style="rounded=1;whiteSpace=wrap;html=1;dashed=1;strokeColor=none;fillColor=#dae8fc;" parent="1" vertex="1">
          <mxGeometry x="-60" y="250" width="70" height="30" as="geometry" />
        </mxCell>
        <mxCell id="iL24kiF9AvWuWapnE7Iy-23" value="&lt;div&gt;开发&lt;/div&gt;&lt;div&gt;数据形态探查&lt;/div&gt;&lt;div&gt;业务数据一致性比对&lt;/div&gt;&lt;div&gt;测试&lt;/div&gt;&lt;div&gt;异构数据比对&lt;/div&gt;&lt;div&gt;上线&lt;/div&gt;&lt;div&gt;卡点发布&lt;/div&gt;&lt;div&gt;链路感知&lt;/div&gt;&lt;div&gt;稽核规则配置&lt;/div&gt;&lt;div&gt;表全生命周期管理&lt;/div&gt;&lt;div&gt;任务分级&amp;amp;基线运维&lt;/div&gt;&lt;div&gt;周期性数据质量问题复盘&lt;/div&gt;" style="text;html=1;strokeColor=none;fillColor=none;align=center;verticalAlign=middle;whiteSpace=wrap;rounded=0;dashed=1;" parent="1" vertex="1">
          <mxGeometry x="165" y="650" width="210" height="10" as="geometry" />
        </mxCell>
        <mxCell id="iL24kiF9AvWuWapnE7Iy-25" value="&lt;h4&gt;&lt;span style=&quot;font-weight: normal&quot;&gt;定义标准化&lt;br&gt;开发流程化&lt;br&gt;手动/自动/UI测试覆盖全&lt;/span&gt;&lt;/h4&gt;" style="text;html=1;strokeColor=none;fillColor=none;align=left;verticalAlign=middle;whiteSpace=wrap;rounded=0;dashed=1;" parent="1" vertex="1">
          <mxGeometry x="20" y="270" width="150" height="70" as="geometry" />
        </mxCell>
        <mxCell id="iL24kiF9AvWuWapnE7Iy-27" value="&lt;div&gt;&lt;br&gt;&lt;/div&gt;&lt;div&gt;分级&lt;/div&gt;&lt;div&gt;限流&lt;/div&gt;&lt;div&gt;熔断&lt;/div&gt;&lt;div&gt;降级&lt;/div&gt;&lt;div&gt;业务兜底&lt;/div&gt;&lt;div&gt;监控大盘&lt;/div&gt;" style="text;html=1;strokeColor=none;fillColor=none;align=center;verticalAlign=middle;whiteSpace=wrap;rounded=0;dashed=1;" parent="1" vertex="1">
          <mxGeometry x="540" y="280" width="110" height="100" as="geometry" />
        </mxCell>
        <mxCell id="TgXje85l5A2x8AtPbwSx-2" style="edgeStyle=orthogonalEdgeStyle;rounded=0;orthogonalLoop=1;jettySize=auto;html=1;exitX=0.5;exitY=1;exitDx=0;exitDy=0;entryX=0.5;entryY=0;entryDx=0;entryDy=0;" edge="1" parent="1" source="iL24kiF9AvWuWapnE7Iy-30" target="iL24kiF9AvWuWapnE7Iy-35">
          <mxGeometry relative="1" as="geometry" />
        </mxCell>
        <mxCell id="iL24kiF9AvWuWapnE7Iy-30" value="&lt;h4&gt;开发&lt;/h4&gt;" style="rounded=1;whiteSpace=wrap;html=1;dashed=1;fillColor=#dae8fc;strokeColor=none;" parent="1" vertex="1">
          <mxGeometry x="-60" y="300" width="70" height="30" as="geometry" />
        </mxCell>
        <mxCell id="TgXje85l5A2x8AtPbwSx-4" style="edgeStyle=orthogonalEdgeStyle;rounded=0;orthogonalLoop=1;jettySize=auto;html=1;exitX=0.5;exitY=1;exitDx=0;exitDy=0;" edge="1" parent="1" source="iL24kiF9AvWuWapnE7Iy-35" target="TgXje85l5A2x8AtPbwSx-3">
          <mxGeometry relative="1" as="geometry" />
        </mxCell>
        <mxCell id="iL24kiF9AvWuWapnE7Iy-35" value="&lt;h4&gt;测试&lt;/h4&gt;" style="rounded=1;whiteSpace=wrap;html=1;dashed=1;fillColor=#dae8fc;strokeColor=none;" parent="1" vertex="1">
          <mxGeometry x="-60" y="350" width="70" height="30" as="geometry" />
        </mxCell>
        <mxCell id="TgXje85l5A2x8AtPbwSx-3" value="&lt;h4&gt;线上&lt;/h4&gt;" style="rounded=1;whiteSpace=wrap;html=1;dashed=1;fillColor=#dae8fc;strokeColor=none;" vertex="1" parent="1">
          <mxGeometry x="-60" y="400" width="70" height="30" as="geometry" />
        </mxCell>
        <mxCell id="TgXje85l5A2x8AtPbwSx-5" value="" style="shape=flexArrow;endArrow=classic;html=1;rounded=0;fillColor=#ffe6cc;strokeColor=none;" edge="1" parent="1">
          <mxGeometry width="50" height="50" relative="1" as="geometry">
            <mxPoint x="-100" y="250" as="sourcePoint" />
            <mxPoint x="-100" y="440" as="targetPoint" />
          </mxGeometry>
        </mxCell>
        <mxCell id="TgXje85l5A2x8AtPbwSx-7" value="&lt;b&gt;JIRA联动&amp;amp;邮件通知&lt;/b&gt;" style="text;html=1;strokeColor=none;fillColor=none;align=center;verticalAlign=middle;whiteSpace=wrap;rounded=0;rotation=-90;" vertex="1" parent="1">
          <mxGeometry x="-190" y="320" width="140" height="40" as="geometry" />
        </mxCell>
        <mxCell id="TgXje85l5A2x8AtPbwSx-8" value="&lt;b&gt;埋点管理平台&lt;/b&gt;" style="text;html=1;strokeColor=none;fillColor=none;align=center;verticalAlign=middle;whiteSpace=wrap;rounded=0;rotation=-90;" vertex="1" parent="1">
          <mxGeometry x="-150" y="315" width="140" height="40" as="geometry" />
        </mxCell>
        <mxCell id="TgXje85l5A2x8AtPbwSx-9" value="&lt;div&gt;&lt;br&gt;&lt;/div&gt;&lt;div&gt;&lt;br&gt;&lt;/div&gt;&lt;div&gt;埋点异动监控、规则监控&lt;/div&gt;&lt;div&gt;埋点全生命管理&lt;/div&gt;" style="text;html=1;strokeColor=none;fillColor=none;align=left;verticalAlign=middle;whiteSpace=wrap;rounded=0;dashed=1;" vertex="1" parent="1">
          <mxGeometry x="20" y="380" width="170" height="50" as="geometry" />
        </mxCell>
        <mxCell id="TgXje85l5A2x8AtPbwSx-14" value="" style="shape=flexArrow;endArrow=classic;html=1;rounded=0;entryX=0;entryY=0.5;entryDx=0;entryDy=0;strokeColor=none;fillColor=#CC6600;" edge="1" parent="1" target="iL24kiF9AvWuWapnE7Iy-2">
          <mxGeometry width="50" height="50" relative="1" as="geometry">
            <mxPoint x="160" y="339" as="sourcePoint" />
            <mxPoint x="210" y="339" as="targetPoint" />
          </mxGeometry>
        </mxCell>
        <mxCell id="TgXje85l5A2x8AtPbwSx-15" value="" style="shape=flexArrow;endArrow=classic;html=1;rounded=0;entryX=0;entryY=0.5;entryDx=0;entryDy=0;strokeColor=none;fillColor=#CC6600;" edge="1" parent="1">
          <mxGeometry width="50" height="50" relative="1" as="geometry">
            <mxPoint x="480" y="339" as="sourcePoint" />
            <mxPoint x="540" y="340" as="targetPoint" />
          </mxGeometry>
        </mxCell>
        <mxCell id="TgXje85l5A2x8AtPbwSx-20" value="数据服务" style="text;html=1;strokeColor=none;fillColor=none;align=center;verticalAlign=middle;whiteSpace=wrap;rounded=0;dashed=1;" vertex="1" parent="1">
          <mxGeometry x="532.5" y="440" width="140" height="30" as="geometry" />
        </mxCell>
        <mxCell id="TgXje85l5A2x8AtPbwSx-21" value="埋点建设" style="text;html=1;strokeColor=none;fillColor=none;align=center;verticalAlign=middle;whiteSpace=wrap;rounded=0;dashed=1;" vertex="1" parent="1">
          <mxGeometry x="-70" y="445" width="140" height="30" as="geometry" />
        </mxCell>
        <mxCell id="TgXje85l5A2x8AtPbwSx-22" value="&lt;b&gt;埋点建设&lt;/b&gt;" style="text;html=1;strokeColor=none;fillColor=none;align=center;verticalAlign=middle;whiteSpace=wrap;rounded=0;dashed=1;" vertex="1" parent="1">
          <mxGeometry x="-70" y="445" width="140" height="30" as="geometry" />
        </mxCell>
        <mxCell id="TgXje85l5A2x8AtPbwSx-23" value="数据服务" style="text;html=1;strokeColor=none;fillColor=none;align=center;verticalAlign=middle;whiteSpace=wrap;rounded=0;dashed=1;fontStyle=1" vertex="1" parent="1">
          <mxGeometry x="532.5" y="440" width="140" height="30" as="geometry" />
        </mxCell>
      </root>
    </mxGraphModel>
  </diagram>
</mxfile>
